<svg width="1666" height="1666" xmlns="http://www.w3.org/2000/svg" version="1.1">

 <g>
  <title>Layer 1</title>
  <rect stroke-width="0" rx="300" id="svg_10" height="1666" width="1666" y="0" x="0" stroke="#000" fill="#ffffff"/>
  <path id="svg_1" fill="#000000" d="m1500.24219,213.79688c4.07416,2.78853 6.41785,6.51326 7.75781,11.20313c1.09893,8.00643 -2.73487,14.06153 -7.39453,20.26171c-2.32823,3.00965 -4.72403,5.96251 -7.12939,8.91065c-1.92591,2.38461 -3.79386,4.81157 -5.66431,7.23974c-9.13623,11.80293 -18.33436,21.39179 -30.81177,29.5879c-0.61085,0.41104 -1.22171,0.82209 -1.85107,1.2456c-7.79499,5.23001 -15.84482,9.81024 -24.27393,13.9419c-0.75482,0.37962 -1.50965,0.75925 -2.28735,1.15039c-18.43873,8.74919 -39.03466,12.97422 -58.77515,17.66211c-1.26854,0.3037 -2.53707,0.60741 -3.84405,0.92031c-20.23372,4.84102 -40.48583,9.42057 -60.96845,13.07969c-1.45068,0.26345 -1.45068,0.26345 -2.93066,0.53222c-29.99022,5.34012 -61.73414,6.26181 -92.06934,3.46778c0.1146,0.53819 0.2292,1.07638 0.34728,1.63088c2.05255,10.38395 3.05293,20.9126 4.21913,31.4238c0.2411,2.15035 0.48248,4.30067 0.7241,6.45096c0.50408,4.49314 1.0056,8.98655 1.50515,13.48019c0.63691,5.72832 1.27914,11.45603 1.92317,17.18355c0.49851,4.43703 0.9947,8.87432 1.49017,13.3117c0.23583,2.11054 0.47223,4.22103 0.70925,6.33144c1.64929,14.70602 3.07887,29.35264 3.6091,44.14841c0.04132,1.14835 0.08265,2.29669 0.12523,3.47983c0.52077,15.49929 0.70704,31.00442 0.88005,46.51082c0.03027,2.70877 0.06164,5.41752 0.09304,8.12627c0.39206,34.43541 0.48299,68.87138 0.49645,103.30868c0.00164,4.12 0.00461,8.24001 0.0087,12.36001c0.00712,7.19858 0.0085,14.39713 0.00356,21.59571c-0.00103,2.42117 -0.00047,4.84234 0.00176,7.2635c0.00255,3.32879 -0.00123,6.65751 -0.00674,9.98629c0.00202,0.97337 0.00405,1.94675 0.00614,2.94962c-0.01442,4.60153 -0.18773,8.93135 -1.13554,13.45834c1.10997,-0.01572 2.21993,-0.03143 3.36353,-0.04761c18.82435,-0.24212 37.6252,-0.46066 56.38647,1.29761c1.89505,0.16399 1.89505,0.16399 3.82837,0.33129c6.20297,0.6532 10.70254,1.20097 15.42163,5.41871c3.13338,3.89555 4.79491,6.97534 5,12c-0.70029,5.50231 -2.77586,9.08447 -6.99609,12.55859c-6.33662,3.04059 -13.63976,2.92001 -20.5647,3.28638c-2.27482,0.14458 -4.5134,0.3801 -6.77515,0.65893c-5.7686,0.67278 -11.5504,0.85629 -17.35156,1.0586c-1.17087,0.04245 -2.34174,0.08491 -3.54809,0.12866c-10.92469,0.36738 -21.83546,0.39071 -32.76441,0.30884c-0.12117,1.27302 -0.24234,2.54605 -0.36719,3.85766c-0.79463,8.34687 -1.58949,16.69372 -2.38748,25.04027c-0.24728,2.5873 -0.49411,5.17464 -0.74093,7.76198c-0.34594,3.62471 -0.69432,7.24918 -1.04395,10.87353c-1.05817,10.91364 -1.05817,10.91364 -1.95264,21.84156c-0.9237,12.43926 -2.93826,24.61007 -5.12011,36.8789c-1.86995,10.53694 -3.50808,21.08869 -5.0127,31.6836c-1.33887,9.39084 -2.79041,18.70477 -4.79443,27.98071c-1.65778,7.92277 -2.77761,15.9155 -3.95508,23.92013c-6.11625,41.319 -16.39546,81.7043 -26.62549,122.16166c-0.21169,0.84056 -0.42337,1.68113 -0.64148,2.54718c-1.94016,7.66627 -4.09076,15.13186 -7.10852,22.45282c-0.34361,0.84103 -0.68723,1.68206 -1.04126,2.54858c-5.22799,12.54551 -11.25975,23.12675 -20.20874,33.45142c-1.91848,2.31528 -3.80626,4.65438 -5.6875,7c-0.49895,0.621 -0.99789,1.24201 -1.51196,1.88183c-4.7648,5.98095 -9.26998,12.14396 -13.77734,18.31983c-4.47699,6.11414 -9.15342,11.99128 -14.0232,17.79834c-0.83531,1.16982 -0.83531,1.16982 -1.6875,2.36328c-13.70509,15.62658 -36.52334,28.35249 -57.3291,29.85449c-36.87303,1.38431 -61.04427,-14.12721 -87.45898,-38.58399c-6.77486,-6.41085 -12.78868,-13.29083 -18.52442,-20.63378c-1.15049,-1.45987 -1.15049,-1.45987 -2.32422,-2.94922c-7.14265,-9.16699 -13.98686,-18.54847 -20.67578,-28.05078c-0.5783,-0.82033 -1.15661,-1.64066 -1.75244,-2.48584c-33.91699,-48.48097 -33.91699,-48.48097 -32.24756,-68.51416c1.94758,-6.06566 5.48629,-10.76965 11,-14c6.01822,-2.34153 10.86629,-2.31134 16.89453,-0.11719c5.18058,2.74888 7.83279,5.79909 10.35547,11.05469c0.29101,0.59844 0.58201,1.19689 0.88184,1.81347c2.16872,4.53998 4.09188,9.17021 6.00806,13.82105c10.04518,24.2326 25.80208,45.80507 41.8601,66.42798c0.99,1.2781 0.99,1.2781 2,2.58203c4.09451,5.2061 8.39749,10.17211 12.86328,15.0625c1.83731,2.0254 3.61713,4.08378 5.38672,6.16797c14.92357,17.52462 14.92357,17.52462 35.74903,25.31884c5.52301,0.08316 10.38413,-0.61833 15.68847,-2.13134c0.77457,-0.21931 1.54913,-0.43861 2.34717,-0.66456c14.71847,-4.45033 26.29134,-13.11214 35.34033,-25.46044c1.13393,-1.51447 2.26805,-3.02879 3.40235,-4.54297c0.82347,-1.10868 0.82347,-1.10868 1.66357,-2.23975c2.13609,-2.86663 4.31321,-5.69896 6.49658,-8.52978c0.7902,-1.02997 1.58039,-2.05993 2.39453,-3.1211c2.0166,-2.61451 4.06296,-5.20402 6.11719,-7.78906c12.85348,-16.22305 22.81074,-32.2463 28.39844,-52.29688c0.25609,-0.90809 0.51219,-1.81617 0.77605,-2.75178c2.86468,-10.22825 5.53341,-20.50705 8.18879,-30.79118c1.04434,-4.03157 2.09035,-8.06271 3.13672,-12.09375c0.25773,-0.99373 0.51547,-1.98745 0.78101,-3.01128c1.63496,-6.29443 3.29417,-12.58188 4.9768,-18.86372c0.20831,-0.77919 0.41662,-1.55837 0.63124,-2.36117c0.95989,-3.58898 1.92396,-7.17674 2.89538,-10.76261c0.33797,-1.2624 0.67595,-2.52479 1.02416,-3.82544c0.29021,-1.07403 0.58041,-2.14807 0.8794,-3.25464c1.91053,-8.06001 3.0724,-15.99792 3.6206,-24.25318c1.27947,-16.44929 3.8798,-32.74601 6.3003,-49.05737c0.68263,-4.60015 1.35456,-9.20178 2.02317,-13.80398c0.52631,-3.61542 1.05786,-7.23005 1.59091,-10.84448c0.24935,-1.69419 0.49731,-3.38859 0.74367,-5.08322c1.46362,-10.04131 3.17321,-19.99189 5.24812,-29.9266c1.23526,-5.94323 2.03913,-11.79482 2.39852,-17.85856c0.1469,-2.02616 0.29544,-4.05219 0.44531,-6.07813c0.07638,-1.07186 0.15276,-2.14371 0.23145,-3.24805c0.49714,-6.64717 1.09661,-13.28544 1.69824,-19.92382c0.06308,-0.69799 0.12615,-1.39598 0.19113,-2.11512c0.87632,-9.64298 1.8564,-19.26889 2.99637,-28.88488c0.12303,-1.04793 0.24605,-2.09586 0.37281,-3.17554c0.11674,-0.95141 0.23348,-1.90282 0.35375,-2.88306c0.10136,-0.82685 0.20271,-1.6537 0.30713,-2.50561c0.34131,-1.99829 0.34131,-1.99829 1.34131,-3.99829c-1.18715,0.00888 -2.3743,0.01776 -3.59742,0.02691c-11.19676,0.08115 -22.39345,0.14108 -33.59043,0.18033c-5.75627,0.02086 -11.51231,0.04915 -17.26845,0.09451c-5.55672,0.04352 -11.11321,0.06739 -16.67008,0.07775c-2.11827,0.00739 -4.23653,0.0218 -6.3547,0.04342c-2.97085,0.0291 -5.94077,0.03303 -8.91174,0.03118c-0.8725,0.01438 -1.74501,0.02876 -2.64395,0.04358c-5.81035,-0.03909 -9.20187,-1.1128 -13.96323,-4.49768c-2.98183,-4.32847 -3.6385,-7.80078 -3,-13c1.79136,-5.07551 4.21343,-7.43279 8.95946,-10.07912c3.47452,-1.56803 6.98088,-1.93488 10.74367,-2.33495c0.82676,-0.10008 1.65352,-0.20015 2.50534,-0.30327c2.67888,-0.31916 5.35968,-0.61462 8.04153,-0.90766c1.86578,-0.21328 3.73151,-0.42707 5.59717,-0.64136c5.38111,-0.60935 10.76561,-1.18111 16.15283,-1.73364c0.70105,-0.07217 1.4021,-0.14434 2.12439,-0.21869c13.73239,-1.3954 27.38612,-1.88303 41.1803,-1.82428c1.43481,0.00346 2.86963,0.00659 4.30444,0.0094c3.46364,0.00746 6.92725,0.01926 10.39087,0.03357c0.09198,-30.39448 0.16241,-60.78894 0.20426,-91.18353c0.005,-3.61835 0.01018,-7.2367 0.01547,-10.85505c0.00105,-0.72011 0.0021,-1.44022 0.00318,-2.18215c0.01723,-11.53947 0.04867,-23.07885 0.0857,-34.61827c0.0379,-11.91055 0.05973,-23.82107 0.06775,-35.73168c0.00491,-6.66051 0.01688,-13.32082 0.04656,-19.98128c0.13799,-32.22429 -0.95108,-63.96055 -4.18357,-96.02803c-0.50614,-5.11756 -0.95329,-10.24048 -1.40879,-15.36274c-0.61701,-6.93107 -1.2619,-13.85965 -1.91405,-20.7875c-3.00839,-32.06241 -3.00839,-32.06241 -0.91651,-39.26977c-1.12535,-0.11086 -2.2507,-0.22172 -3.41015,-0.33594c-4.83672,-0.60977 -9.3734,-1.86586 -14.02735,-3.28906c-0.87688,-0.26797 -1.75377,-0.53593 -2.65722,-0.81202c-18.63748,-5.83137 -37.20472,-14.12946 -53.71387,-24.56298c-6.2534,-3.8101 -13.00412,-6.3298 -19.81641,-8.9375c-1.42345,-0.55208 -2.8467,-1.10467 -4.26977,-1.65772c-4.69517,-1.81893 -9.39937,-3.61372 -14.10523,-5.40478c-0.86159,-0.32837 -1.72319,-0.65674 -2.6109,-0.99506c-6.27098,-2.38876 -12.54715,-4.76353 -18.8266,-7.12994c-0.85644,-0.32347 -1.71288,-0.64693 -2.59527,-0.9802c-16.60449,-6.82567 -16.60449,-6.82567 -34.15473,-9.4573c-1.16088,0.00145 -1.16088,0.00145 -2.34521,0.00292c-8.32034,0.23126 -16.43972,1.7478 -24.59229,3.30958c-0.67026,0.12615 -1.34052,0.25231 -2.03109,0.38229c-16.10556,3.07985 -27.20718,8.49329 -36.76871,22.16482c-10.79856,16.16653 -18.15388,33.56333 -24.80176,51.75342c-1.24734,3.37088 -2.56981,6.6752 -4.0625,9.94556c-0.30551,0.67088 -0.61102,1.34175 -0.92578,2.03296c-0.84496,1.82976 -1.70882,3.65076 -2.57422,5.47095c-6.11912,14.8712 -7.50696,31.49216 -9.71362,47.27294c-0.42926,3.04835 -0.87097,6.09471 -1.31372,9.14112c-0.12509,0.92503 -0.25017,1.85006 -0.37905,2.80313c-0.90949,6.22183 -2.02239,11.22329 -6.86705,15.59531c-4.13637,2.86364 -7.47648,3.19655 -12.4375,2.6875c-4.66117,-1.70313 -7.51572,-3.67552 -10,-8c-1.25099,-6.57674 -1.00539,-13.05711 -0.36328,-19.67969c0.08071,-0.89285 0.16143,-1.7857 0.24458,-2.7056c0.17278,-1.88113 0.35035,-3.76182 0.53252,-5.64206c0.26957,-2.80484 0.51782,-5.61098 0.76392,-8.41797c1.55845,-17.02302 4.1608,-33.61661 10.19726,-49.67968c0.63096,-1.72115 0.63096,-1.72115 1.27466,-3.47706c3.65558,-9.83251 7.56701,-19.56412 11.53784,-29.27294c0.2876,-0.70563 0.57521,-1.41125 0.87152,-2.13825c11.95668,-29.22601 27.70058,-52.22023 57.55036,-65.16644c1.46196,-0.61056 2.9255,-1.21738 4.39062,-1.82031c0.69545,-0.29423 1.3909,-0.58846 2.10742,-0.89161c13.30912,-5.50101 26.60895,-6.52108 40.89258,-7.10839c0.71704,-0.03852 1.43408,-0.07703 2.17285,-0.1167c43.72107,-2.29931 96.12705,19.98016 134.38477,39.39233c8.24694,4.17725 16.54819,8.17052 25.00488,11.91187c0.96704,0.43288 1.93408,0.86576 2.93042,1.31176c10.29025,4.48714 20.67693,7.74102 31.81958,9.18824c0.82823,0.11666 1.65645,0.23332 2.50977,0.35351c1.6314,0.22755 3.26381,0.44796 4.89721,0.66065c2.05704,0.2691 4.1105,0.56528 6.16333,0.86474c43.09826,5.25275 88.48187,-6.36418 130.11719,-16.5664c0.97322,-0.23842 1.94645,-0.47684 2.94916,-0.72248c6.21238,-1.52575 12.4198,-3.07034 18.62289,-4.63345c1.99497,-0.50256 3.99046,-1.00307 5.98652,-1.50128c10.38536,-2.59997 20.65673,-5.40663 30.82424,-8.76779c0.84624,-0.27861 1.69248,-0.55722 2.56437,-0.84427c7.37267,-2.50066 14.21567,-5.76743 21.05526,-9.46286c2.13408,-1.14086 4.28736,-2.23752 6.44678,-3.32959c7.73598,-3.94129 15.09553,-7.84274 21.55078,-13.73828c0.78246,-0.71415 1.56492,-1.42829 2.3711,-2.16407c7.46315,-7.14879 13.65721,-15.23789 19.86035,-23.47021c8.08564,-10.69962 16.86413,-17.88971 30.01074,-10.56885z"/>
  <path id="svg_2" fill="#000000" d="m680.8125,382.5c1.60547,1.13672 1.60547,1.13672 3.1875,2.5c0.59426,0.50145 1.18852,1.00289 1.80078,1.51953c11.26867,11.07563 12.20933,30.67252 14.19922,45.48047c0.26321,1.84271 0.26321,1.84271 0.53174,3.72266c0.83091,7.73601 0.74125,15.54424 0.75732,23.3164c0.00284,1.30954 0.00284,1.30954 0.00573,2.64553c-0.00491,19.16452 -1.59702,38.05626 -3.64264,57.09669c-0.28375,2.65545 -0.56081,5.31153 -0.83593,7.9679c-1.14706,11.06755 -2.34082,22.12922 -3.58429,33.18636c-0.21016,1.87064 -0.41842,3.74149 -0.62646,5.61237c-4.08729,36.52658 -12.111,72.50469 -19.60547,108.45209c-0.19137,0.9189 -0.38275,1.8378 -0.57992,2.78454c-31.61627,151.80404 -31.61627,151.80404 -48.42008,202.21546c0.63237,-0.26925 1.26473,-0.53851 1.91626,-0.81592c24.4487,-10.36279 49.23251,-19.83585 74.08374,-29.18408c0.9872,-0.37202 1.9744,-0.74403 2.99152,-1.12732c38.49394,-14.4947 38.49394,-14.4947 57.75848,-19.93518c1.14743,-0.32887 2.29485,-0.65774 3.47705,-0.99658c7.33592,-1.95423 12.63911,-2.4291 19.89795,0.18408c4.55409,2.97006 8.14084,6.67251 9.875,11.875c0.50749,6.21674 0.77198,11.76789 -3,17c-5.61722,5.88471 -11.89896,8.11829 -19.47897,10.6062c-3.81561,1.25579 -7.6102,2.57292 -11.40775,3.88208c-1.22146,0.41912 -1.22146,0.41912 -2.4676,0.84671c-9.76495,3.3659 -19.42612,7.00304 -29.08318,10.66501c-0.93318,0.35366 -1.86636,0.70731 -2.82782,1.07169c-33.72449,12.79821 -67.33381,25.89162 -100.5755,39.90097c-0.81249,0.34122 -1.62497,0.68243 -2.46208,1.03399c-1.50847,0.63408 -3.01564,1.27122 -4.52127,1.91199c-4.95246,2.08136 -4.95246,2.08136 -7.17583,2.08136c-0.20709,0.96923 -0.41417,1.93846 -0.62753,2.93706c-3.01241,13.91073 -6.4561,27.71003 -9.91046,41.51649c-0.68117,2.72359 -1.36092,5.44753 -2.04072,8.17146c-1.61304,6.46318 -3.22854,12.92575 -4.84561,19.38793c-1.45924,5.83164 -2.91559,11.664 -4.36914,17.49707c-13.91186,55.82355 -13.91186,55.82355 -19.93701,78.16577c-0.19156,0.71374 -0.38311,1.42748 -0.58048,2.16285c-3.85373,14.31164 -8.52073,28.27064 -13.68905,42.16137c-0.27219,0.73325 -0.54439,1.46651 -0.82483,2.22198c-20.24024,54.43392 -43.10091,108.86995 -78.90124,155.11152c-1.79494,2.34807 -3.50112,4.75635 -5.21143,7.1665c-4.89402,6.77006 -10.22952,13.1844 -15.5332,19.63428c-1.34627,1.64242 -2.6809,3.29436 -4.01368,4.94775c-4.54445,5.63222 -9.27816,11.03552 -14.17578,16.36328c-1.99819,2.18167 -3.96133,4.3848 -5.90234,6.61719c-1.14537,1.3129 -2.29127,2.62535 -3.4375,3.9375c-0.56469,0.65082 -1.12938,1.30163 -1.71118,1.97217c-6.98425,7.91076 -14.43001,15.35513 -21.88989,22.81421c-2.26739,2.26957 -4.52663,4.54705 -6.78565,6.82495c-7.56199,7.5913 -15.11692,14.8399 -23.61328,21.38867c-1.10894,0.90229 -2.21607,1.80682 -3.32031,2.71484c-27.904,22.11334 -60.58028,32.97889 -96.37061,28.98487c-18.19567,-2.94568 -33.99558,-10.98769 -45.30908,-25.69971c-22.91946,-32.80295 -23.3869,-81.12799 -16.99609,-119.27734c7.54866,-41.60002 25.27756,-79.92325 46.5249,-116.20655c1.37579,-2.35296 2.73301,-4.71552 4.08447,-7.08252c13.59407,-23.6715 29.73372,-45.64283 47.38672,-66.43359c0.55575,-0.65484 1.11149,-1.30969 1.68408,-1.98437c7.0799,-8.31218 14.35364,-16.42504 21.81201,-24.39844c1.46066,-1.57068 2.90584,-3.15422 4.34766,-4.74219c8.41666,-9.21403 17.21694,-18.04412 26.03125,-26.875c0.63574,-0.63833 1.27148,-1.27666 1.92648,-1.93433c12.23194,-12.27116 12.23194,-12.27116 18.42704,-17.5393c3.30458,-2.84734 6.42447,-5.8953 9.58398,-8.90137c5.26009,-4.96318 10.57391,-9.75759 16.23437,-14.26562c2.30433,-1.84103 4.57952,-3.70435 6.84375,-5.59375c8.80523,-7.34159 17.75408,-14.40888 26.9878,-21.20313c2.25473,-1.66057 4.50288,-3.32979 6.75049,-5c10.34829,-7.6762 20.77449,-15.23221 31.37109,-22.5625c0.61762,-0.42732 1.23524,-0.85465 1.87158,-1.29492c27.77962,-19.11107 57.9129,-33.81321 88.25708,-48.32324c0.94754,-0.45601 1.89509,-0.91202 2.87134,-1.38184c0.68852,-0.27407 1.37703,-0.54813 2.08641,-0.83051c2.46493,-1.50644 2.69103,-2.499 3.40236,-5.26324c0.22809,-0.8525 0.45619,-1.70501 0.69119,-2.58334c0.34791,-1.39734 0.34791,-1.39734 0.70285,-2.82291c0.25555,-0.96934 0.5111,-1.93869 0.77439,-2.93741c0.83686,-3.18399 1.652,-6.37315 2.4678,-9.56259c1.16199,-4.44724 2.33495,-8.89156 3.50781,-13.33594c0.28974,-1.10395 0.57948,-2.2079 0.87799,-3.3453c2.12569,-8.06326 4.44798,-16.04565 6.89908,-24.01468c13.31944,-43.54081 22.06327,-88.53744 31.63897,-133.0176c2.70323,-12.55641 5.44442,-25.104 8.21155,-37.64648c1.22169,-5.54279 2.43762,-11.08685 3.6535,-16.63092c0.96599,-4.40261 1.93516,-8.80446 2.91285,-13.20448c7.79873,-35.12343 13.35517,-70.29895 17.58243,-106.01944c0.74627,-6.29487 1.50449,-12.58832 2.2645,-18.88155c0.1826,-1.51267 0.36481,-3.02538 0.54659,-4.53815c1.0386,-8.63015 2.14902,-17.24043 3.48676,-25.8303c2.11553,-13.67425 2.42207,-26.98025 2.35547,-40.78516c-0.00503,-1.82422 -0.00959,-3.64844 -0.01367,-5.47266c-0.01091,-4.42581 -0.02811,-8.85156 -0.04883,-13.27734c-1.4856,0.74661 -1.4856,0.74661 -3.00122,1.5083c-8.39041,4.21009 -16.80586,8.36117 -25.26199,12.43811c-39.12078,18.87824 -78.04184,38.15527 -116.89729,57.57237c-2.94016,1.46906 -5.88065,2.93743 -8.82122,4.40566c-4.70461,2.34933 -9.40802,4.70104 -14.11056,7.05451c-1.73809,0.86956 -3.47649,1.7385 -5.21523,2.60674c-9.7866,4.88802 -19.52277,9.85666 -29.18568,14.98556c-7.61011,4.03646 -15.31786,7.85967 -23.06931,11.61625c-0.73508,0.35701 -1.47016,0.71402 -2.22751,1.08185c-20.8975,10.13 -42.1696,19.3811 -63.58499,28.35565c-21.2136,8.91507 -41.94628,18.40656 -61.625,30.375c-0.7222,0.43506 -1.44439,0.87012 -2.18848,1.31836c-13.47295,8.15906 -26.4301,17.1308 -39.42358,26.02466c-0.72834,0.4967 -1.45667,0.9934 -2.20708,1.50516c-1.38282,0.94313 -2.7637,1.88911 -4.14236,2.83831c-6.07057,4.13384 -10.78664,5.12807 -18.0385,4.31351c-4.36872,-2.18436 -7.48211,-4.80352 -10,-9c-1.37756,-4.63925 -1.51633,-8.65289 0.4375,-13.125c5.12955,-8.72023 14.82511,-13.99011 22.94141,-19.63672c3.77956,-2.63414 7.50628,-5.33294 11.22143,-8.05688c31.50172,-23.05352 65.47096,-41.1216 101.15112,-56.75757c31.15542,-13.65538 61.8233,-28.57626 91.8733,-44.52197c7.24778,-3.84533 14.52308,-7.63662 21.81274,-11.40186c0.67008,-0.34611 1.34016,-0.69223 2.03055,-1.04883c16.59886,-8.56074 33.32187,-16.87559 50.04538,-25.18945c10.12394,-5.03857 20.2091,-10.12729 30.19772,-15.42928c9.88908,-5.23439 19.89145,-10.24519 29.8953,-15.25578c3.3919,-1.70083 6.77942,-3.41018 10.16699,-5.11963c55.74579,-28.0088 55.74579,-28.0088 70.03906,-20.95703zm-116.8125,566.5c-38.95731,18.8743 -73.79739,43.63182 -108,70c-0.68111,0.52368 -1.36222,1.04736 -2.06396,1.58691c-11.65686,8.97889 -22.80676,18.50075 -33.69776,28.39356c-2.11805,1.91105 -4.26543,3.78159 -6.42578,5.64453c-3.13,2.72229 -6.0528,5.59042 -8.95605,8.55103c-1.7074,1.67753 -3.46189,3.22202 -5.29004,4.76538c-5.39848,4.69557 -10.41959,9.76201 -15.46656,14.82837c-1.65912,1.66448 -3.32353,3.32355 -4.98852,4.98217c-5.06292,5.06009 -10.05426,10.12386 -14.67554,15.5979c-1.56901,1.80326 -3.22963,3.47678 -4.93579,5.15015c-3.71209,3.66292 -7.10736,7.54192 -10.5,11.5c-0.89547,1.03156 -1.79134,2.06279 -2.6875,3.09375c-50.84415,58.66309 -100.01987,135.08356 -99.625,215.09375c0.00149,0.75409 0.00298,1.50818 0.00452,2.28513c0.03329,9.42081 0.31067,18.73793 1.55798,28.08987c0.10917,0.82975 0.21833,1.65951 0.33081,2.5144c1.35399,8.59897 4.21754,18.46529 11.41919,23.9231c15.40106,7.83345 33.6834,10.45286 50.5,5.0625c2.56774,-0.95687 5.01472,-1.93289 7.5,-3.0625c1.03496,-0.46672 1.03496,-0.46672 2.09082,-0.94287c14.58084,-6.77132 26.35525,-16.41857 37.99512,-27.354c2.17046,-2.01336 4.36026,-3.95303 6.60547,-5.87891c5.18845,-4.51965 10.01792,-9.38777 14.87109,-14.26172c0.90686,-0.90299 1.81371,-1.80598 2.74805,-2.73633c4.54063,-4.54722 8.94725,-9.14588 13.13159,-14.02319c2.40017,-2.77782 4.92176,-5.43836 7.43286,-8.11548c4.46649,-4.80092 8.70138,-9.72565 12.80469,-14.84375c1.64397,-2.01484 3.30122,-3.98509 5.01562,-5.9375c45.24456,-51.53725 73.70168,-113.37094 97.30469,-177.09375c0.29743,-0.7944 0.59486,-1.58881 0.90131,-2.40729c9.03115,-24.21003 15.24406,-49.33434 21.63361,-74.34129c0.53663,-2.09934 1.0744,-4.19838 1.61248,-6.29735c2.06071,-8.03969 4.11426,-16.08118 6.16139,-24.12434c1.12713,-4.42842 2.25626,-8.85633 3.38717,-13.28379c1.98371,-7.76671 3.95735,-15.5359 5.92022,-23.3079c0.66983,-2.65128 1.34329,-5.3016 2.01984,-7.95117c0.934,-3.66528 1.85748,-7.33304 2.77804,-11.00171c0.27929,-1.0874 0.55858,-2.1748 0.84633,-3.29515c0.36925,-1.48574 0.36925,-1.48574 0.74596,-3.00148c0.21742,-0.86017 0.43483,-1.72033 0.65884,-2.60656c0.5313,-2.3645 0.5313,-2.3645 -0.66519,-5.19447z"/>
 </g>
</svg>